<svg xmlns="http://www.w3.org/2000/svg" viewBox="-6.500 -6.500 20.500 16.500" width="20" height="16">
  <!-- Knots v2 — generado automáticamente -->
  <!-- Discos -->
  <circle cx="0.0000" cy="0.0000" r="1.5000" fill="#aecde8" stroke="#2a6496" stroke-width="0.0600" opacity="0.75" id="disk-0"/>
  <text x="0.0000" y="0.0000" text-anchor="middle" dominant-baseline="central" font-size="0.6000" fill="#1a3e5c">0</text>
  <circle cx="4.0000" cy="0.0000" r="1.5000" fill="#aecde8" stroke="#2a6496" stroke-width="0.0600" opacity="0.75" id="disk-1"/>
  <text x="4.0000" y="0.0000" text-anchor="middle" dominant-baseline="central" font-size="0.6000" fill="#1a3e5c">1</text>
  <circle cx="8.0000" cy="0.0000" r="1.0000" fill="#aecde8" stroke="#2a6496" stroke-width="0.0400" opacity="0.75" id="disk-2"/>
  <text x="8.0000" y="0.0000" text-anchor="middle" dominant-baseline="central" font-size="0.4000" fill="#1a3e5c">2</text>
  <circle cx="2.0000" cy="3.5000" r="1.5000" fill="#aecde8" stroke="#2a6496" stroke-width="0.0600" opacity="0.75" id="disk-3"/>
  <text x="2.0000" y="3.5000" text-anchor="middle" dominant-baseline="central" font-size="0.6000" fill="#1a3e5c">3</text>
  <circle cx="6.0000" cy="3.5000" r="1.2000" fill="#aecde8" stroke="#2a6496" stroke-width="0.0480" opacity="0.75" id="disk-4"/>
  <text x="6.0000" y="3.5000" text-anchor="middle" dominant-baseline="central" font-size="0.4800" fill="#1a3e5c">4</text>
  <!-- Convex hull -->
  <polyline points="-0.0000,-1.5000 4.0000,-1.5000 8.0000,-1.0000 8.2588,-0.9659 8.5000,-0.8660 8.7071,-0.7071 8.8660,-0.5000 8.9659,-0.2588 9.0000,0.0000 8.9659,0.2588 8.8660,0.5000 7.0392,4.1000 6.8485,4.3485 6.6000,4.5392 6.3106,4.6591 6.0000,4.7000 2.0000,5.0000 1.6118,4.9489 1.2500,4.7990 0.9393,4.5607 0.7010,4.2500 -1.2990,0.7500 -1.4489,0.3882 -1.5000,0.0000 -1.4489,-0.3882 -1.2990,-0.7500 -1.0607,-1.0607 -0.7500,-1.2990 -0.3882,-1.4489 -0.0000,-1.5000" fill="none" stroke="#e67e22" stroke-width="0.5" stroke-dasharray="3,2" opacity="0.7"/>
  <!-- Envolvente exterior -->
  <polyline points="-0.0000,-1.5000 4.0000,-1.5000 4.1470,-1.4928 8.0980,-0.9952 8.1951,-0.9808 8.2903,-0.9569 8.3827,-0.9239 8.4714,-0.8819 8.5556,-0.8315 8.6344,-0.7730 8.7071,-0.7071 8.7730,-0.6344 8.8315,-0.5556 8.8819,-0.4714 8.9239,-0.3827 8.9569,-0.2903 8.9808,-0.1951 8.9952,-0.0980 9.0000,0.0000 8.9952,0.0980 8.9808,0.1951 8.9569,0.2903 8.9239,0.3827 8.8819,0.4714 7.0583,4.0657 6.9978,4.1667 6.9276,4.2613 6.8485,4.3485 6.7613,4.4276 6.6667,4.4978 6.5657,4.5583 6.4592,4.6087 6.3483,4.6483 6.2341,4.6769 6.1176,4.6942 2.1470,4.9928 2.0000,5.0000 1.8530,4.9928 1.7074,4.9712 1.5646,4.9354 1.4260,4.8858 1.2929,4.8229 1.1666,4.7472 1.0484,4.6595 0.9393,4.5607 0.8405,4.4516 0.7528,4.3334 0.6771,4.2071 -1.3229,0.7071 -1.3858,0.5740 -1.4354,0.4354 -1.4712,0.2926 -1.4928,0.1470 -1.5000,0.0000 -1.4928,-0.1470 -1.4712,-0.2926 -1.4354,-0.4354 -1.3858,-0.5740 -1.3229,-0.7071 -1.2472,-0.8334 -1.1595,-0.9516 -1.0607,-1.0607 -0.9516,-1.1595 -0.8334,-1.2472 -0.7071,-1.3229 -0.5740,-1.3858 -0.4354,-1.4354 -0.2926,-1.4712 -0.1470,-1.4928 -0.0000,-1.5000" fill="none" stroke="#e74c3c" stroke-width="0.8" stroke-linejoin="round"/>
  <!-- Grafo de contacto -->
</svg>